<svg xmlns="http://www.w3.org/2000/svg" viewBox="0 0 53.856 18.221">
  <defs>
    <style>
      .cls-1 {
        fill: #ff453f;
      }
    </style>
  </defs>
  <g id="Group_526" data-name="Group 526" transform="translate(0 0.001)">
    <path id="Path_12" data-name="Path 12" class="cls-1" d="M10.71,0V6.536h-.09a4.3,4.3,0,0,0-.627-.672,4.535,4.535,0,0,0-.9-.627A7.55,7.55,0,0,0,7.89,4.745a5.508,5.508,0,0,0-1.567-.224,5.861,5.861,0,0,0-2.507.537,6.381,6.381,0,0,0-1.97,1.433A7.446,7.446,0,0,0,.548,8.64,7.277,7.277,0,0,0,.1,11.282a7.693,7.693,0,0,0,.448,2.686,6.355,6.355,0,0,0,1.209,2.149,5.853,5.853,0,0,0,1.97,1.477,6.186,6.186,0,0,0,2.641.537,5.61,5.61,0,0,0,2.552-.582,4.622,4.622,0,0,0,1.88-1.7h.045v1.925h3.089V0Zm-.134,12.8a4.01,4.01,0,0,1-.761,1.343,3.157,3.157,0,0,1-1.209.94,3.512,3.512,0,0,1-1.567.358,3.914,3.914,0,0,1-1.656-.358A4.129,4.129,0,0,1,4.219,14.1a3.791,3.791,0,0,1-.672-1.343,5.686,5.686,0,0,1-.224-1.522,5.629,5.629,0,0,1,.224-1.477,3.791,3.791,0,0,1,.672-1.343,3.01,3.01,0,0,1,1.164-.94,3.914,3.914,0,0,1,1.656-.358,3.512,3.512,0,0,1,1.567.358,5.073,5.073,0,0,1,1.209.985A4.964,4.964,0,0,1,10.576,9.8a4.359,4.359,0,0,1,.269,1.522A4.3,4.3,0,0,1,10.576,12.8Z" transform="translate(-0.1 0)"/>
    <path id="Path_13" data-name="Path 13" class="cls-1" d="M44.009,21.695h-.09a3.781,3.781,0,0,1-1.567,1.433,5.39,5.39,0,0,1-2.462.537,6.659,6.659,0,0,1-1.612-.224,5.349,5.349,0,0,1-1.567-.672,3.492,3.492,0,0,1-1.164-1.254,3.444,3.444,0,0,1-.448-1.88,3.272,3.272,0,0,1,.806-2.328,4.8,4.8,0,0,1,2.1-1.3,12.886,12.886,0,0,1,2.865-.627q1.545-.134,3.089-.134V14.98a2.036,2.036,0,0,0-.9-1.791,3.482,3.482,0,0,0-2.059-.582,4.37,4.37,0,0,0-1.97.448,5.017,5.017,0,0,0-1.567,1.03l-1.656-1.97a6.693,6.693,0,0,1,2.552-1.522,8.119,8.119,0,0,1,2.91-.492,7.085,7.085,0,0,1,2.82.492,4.394,4.394,0,0,1,1.746,1.254,4.637,4.637,0,0,1,.9,1.746,7.133,7.133,0,0,1,.269,1.925v7.834h-3Zm-.09-4.208H43.2c-.537,0-1.074.045-1.656.045a5.4,5.4,0,0,0-1.567.313,3.094,3.094,0,0,0-1.209.627,1.484,1.484,0,0,0-.492,1.164,1.281,1.281,0,0,0,.179.761,1.423,1.423,0,0,0,.537.492,1.978,1.978,0,0,0,.716.269,4.933,4.933,0,0,0,.806.09,3.036,3.036,0,0,0,3.358-3.313v-.448Z" transform="translate(-19.431 -5.578)"/>
    <path id="Path_14" data-name="Path 14" class="cls-1" d="M73.906,14.071a3.668,3.668,0,0,0-1.164-.985,3.361,3.361,0,0,0-1.656-.4A3.058,3.058,0,0,0,69.653,13a1.086,1.086,0,0,0-.627,1.074,1.1,1.1,0,0,0,.716,1.074,12.326,12.326,0,0,0,2.1.627,9.285,9.285,0,0,1,1.477.448,4.838,4.838,0,0,1,1.343.716,3.944,3.944,0,0,1,.985,1.119,3.066,3.066,0,0,1,.358,1.612,4.06,4.06,0,0,1-.448,2.015A4.215,4.215,0,0,1,74.4,23.025a4.442,4.442,0,0,1-1.7.716,10.285,10.285,0,0,1-2.015.224,8.168,8.168,0,0,1-2.91-.537A6.285,6.285,0,0,1,65.4,21.861l2.1-1.97a4.473,4.473,0,0,0,1.388,1.164,3.857,3.857,0,0,0,2.641.358,2.111,2.111,0,0,0,.672-.269A1.6,1.6,0,0,0,72.7,20.7a1.22,1.22,0,0,0,.179-.716,1.176,1.176,0,0,0-.716-1.164,16.749,16.749,0,0,0-2.238-.716,8.58,8.58,0,0,1-1.433-.4,5.256,5.256,0,0,1-1.209-.672,2.994,2.994,0,0,1-1.164-2.552,3.385,3.385,0,0,1,.448-1.835,4.055,4.055,0,0,1,1.164-1.3,5.026,5.026,0,0,1,1.656-.716,6.754,6.754,0,0,1,1.88-.224A8.173,8.173,0,0,1,74,10.892a4.507,4.507,0,0,1,2.1,1.477Z" transform="translate(-36.166 -5.744)"/>
    <path id="Path_15" data-name="Path 15" class="cls-1" d="M104.589,6.133a4.167,4.167,0,0,0-1.477-1.164,4.61,4.61,0,0,0-2.149-.448A4.242,4.242,0,0,0,99.62,4.7a8.456,8.456,0,0,0-1.119.492,6.546,6.546,0,0,0-.851.716,2.81,2.81,0,0,0-.537.806h-.09V0H93.8V17.773h3.223V10.744A3.862,3.862,0,0,1,97.2,9.491a3.819,3.819,0,0,1,.582-1.119,4.072,4.072,0,0,1,.94-.806,2.973,2.973,0,0,1,1.343-.313,2.084,2.084,0,0,1,1.254.313,2.453,2.453,0,0,1,.716.806,4.1,4.1,0,0,1,.358,1.119,11.023,11.023,0,0,1,.09,1.164v7.073h3.223V9.67a6.9,6.9,0,0,0-.269-1.925A5.048,5.048,0,0,0,104.589,6.133Z" transform="translate(-51.852 0)"/>
  </g>
</svg>
