<?xml version="1.0" encoding="utf-8"?>
<!-- Generator: Adobe Illustrator 22.1.0, SVG Export Plug-In . SVG Version: 6.00 Build 0)  -->
<svg version="1.1" id="Group_1" xmlns="http://www.w3.org/2000/svg" xmlns:xlink="http://www.w3.org/1999/xlink" x="0px" y="0px"
	 viewBox="0 0 82.1 27.8" style="enable-background:new 0 0 82.1 27.8;" xml:space="preserve">
<style type="text/css">
	.st0{fill:#FFFFFF;}
</style>
<path id="Path_12" class="st0" d="M16.2,0v10H16c-0.3-0.4-0.6-0.7-1-1c-0.4-0.4-0.9-0.7-1.4-1c-0.6-0.3-1.2-0.6-1.8-0.8
	C11.1,7,10.3,6.9,9.5,6.9c-1.3,0-2.6,0.3-3.8,0.8C4.5,8.2,3.5,9,2.7,9.9c-0.8,1-1.5,2.1-2,3.3c-0.5,1.3-0.7,2.7-0.7,4
	c0,1.4,0.2,2.8,0.7,4.1c0.4,1.2,1,2.3,1.8,3.3c0.8,1,1.9,1.7,3,2.3c1.3,0.6,2.6,0.8,4,0.8c1.3,0,2.7-0.3,3.9-0.9
	c1.2-0.6,2.2-1.5,2.9-2.6h0.1v2.9h4.7V0H16.2z M16,19.5c-0.3,0.8-0.6,1.4-1.2,2c-0.5,0.6-1.1,1.1-1.8,1.4c-0.7,0.4-1.6,0.6-2.4,0.5
	c-0.9,0-1.7-0.2-2.5-0.5c-0.7-0.4-1.3-0.9-1.8-1.5c-0.5-0.6-0.8-1.3-1-2c-0.2-0.8-0.3-1.5-0.3-2.3c0-0.8,0.1-1.5,0.3-2.3
	c0.2-0.7,0.6-1.4,1-2c0.5-0.6,1.1-1.1,1.8-1.4c0.8-0.4,1.7-0.6,2.5-0.5c0.8,0,1.6,0.2,2.4,0.5c0.7,0.4,1.3,0.9,1.8,1.5
	c0.5,0.6,0.9,1.3,1.2,2c0.3,0.7,0.4,1.5,0.4,2.3C16.4,18,16.2,18.8,16,19.5L16,19.5z"/>
<path id="Path_13" class="st0" d="M37.5,24.6h-0.1c-0.6,0.9-1.4,1.7-2.4,2.2c-1.2,0.6-2.5,0.8-3.8,0.8c-0.8,0-1.7-0.1-2.5-0.3
	c-0.8-0.2-1.7-0.6-2.4-1c-0.7-0.5-1.4-1.1-1.8-1.9c-0.5-0.9-0.7-1.9-0.7-2.9c-0.1-1.3,0.4-2.6,1.2-3.5c0.9-0.9,2-1.6,3.2-2
	c1.4-0.5,2.9-0.8,4.4-1c1.6-0.1,3.1-0.2,4.7-0.2v-0.4c0.1-1.1-0.5-2.1-1.4-2.7c-0.9-0.6-2-0.9-3.1-0.9c-1,0-2.1,0.2-3,0.7
	c-0.9,0.4-1.7,0.9-2.4,1.6L25,10c1.1-1.1,2.4-1.8,3.9-2.3c1.4-0.5,2.9-0.8,4.4-0.8c1.5,0,2.9,0.2,4.3,0.8c1,0.4,1.9,1.1,2.7,1.9
	c0.6,0.8,1.1,1.7,1.4,2.7c0.3,1,0.4,1.9,0.4,2.9v11.9h-4.6V24.6z M37.3,18.2h-1.1c-0.8,0-1.6,0.1-2.5,0.1c-0.8,0-1.6,0.2-2.4,0.5
	c-0.7,0.2-1.3,0.5-1.8,1c-0.5,0.5-0.8,1.1-0.8,1.8c0,0.4,0.1,0.8,0.3,1.2c0.2,0.3,0.5,0.6,0.8,0.8c0.3,0.2,0.7,0.3,1.1,0.4
	c0.4,0.1,0.8,0.1,1.2,0.1c1.4,0.1,2.8-0.4,3.8-1.4c0.9-1,1.4-2.3,1.3-3.7L37.3,18.2L37.3,18.2z"/>
<path id="Path_14" class="st0" d="M57.5,12.7c-0.5-0.6-1.1-1.1-1.8-1.5c-0.8-0.4-1.6-0.6-2.5-0.6c-0.8,0-1.5,0.1-2.2,0.5
	c-0.6,0.3-1,0.9-1,1.6c0,0.7,0.4,1.4,1.1,1.6c1,0.4,2.1,0.7,3.2,1c0.8,0.2,1.5,0.4,2.3,0.7c0.7,0.3,1.4,0.6,2,1.1
	c0.6,0.5,1.1,1,1.5,1.7c0.4,0.8,0.6,1.6,0.5,2.5c0,1.1-0.2,2.1-0.7,3.1c-0.4,0.8-1,1.5-1.8,2c-0.8,0.5-1.7,0.9-2.6,1.1
	c-1,0.2-2,0.3-3.1,0.3c-1.5,0-3-0.3-4.4-0.8c-1.4-0.5-2.6-1.3-3.6-2.4l3.2-3c0.6,0.7,1.3,1.3,2.1,1.8c1.2,0.7,2.7,0.8,4,0.5
	c0.4-0.1,0.7-0.2,1-0.4c0.3-0.2,0.6-0.4,0.8-0.7c0.2-0.3,0.3-0.7,0.3-1.1c0.1-0.8-0.4-1.5-1.1-1.8c-1.1-0.4-2.3-0.8-3.4-1.1
	c-0.7-0.1-1.5-0.3-2.2-0.6c-0.7-0.3-1.3-0.6-1.8-1c-1.2-0.9-1.9-2.4-1.8-3.9c0-1,0.2-2,0.7-2.8c0.4-0.8,1-1.5,1.8-2
	c0.8-0.5,1.6-0.9,2.5-1.1c0.9-0.2,1.9-0.4,2.9-0.3c1.4,0,2.8,0.3,4.2,0.8c1.3,0.4,2.4,1.2,3.2,2.3L57.5,12.7z"/>
<path id="Path_15" class="st0" d="M80.4,9.4C79.8,8.6,79,8,78.2,7.6c-1-0.5-2.1-0.7-3.3-0.7c-0.7,0-1.4,0.1-2,0.3
	c-0.6,0.2-1.2,0.5-1.7,0.8c-0.5,0.3-0.9,0.7-1.3,1.1c-0.3,0.4-0.6,0.8-0.8,1.2h-0.1V0H64v27.1h4.9V16.4c0-0.6,0.1-1.3,0.3-1.9
	c0.2-0.6,0.5-1.2,0.9-1.7c0.4-0.5,0.9-0.9,1.4-1.2c0.6-0.3,1.3-0.5,2-0.5c0.7,0,1.3,0.1,1.9,0.5c0.5,0.3,0.8,0.7,1.1,1.2
	c0.3,0.5,0.4,1.1,0.5,1.7c0.1,0.6,0.1,1.2,0.1,1.8V27h4.9V14.7c0-1-0.1-2-0.4-2.9C81.4,10.9,81,10.1,80.4,9.4z"/>
</svg>
