<svg id="Group_1" data-name="Group 1" xmlns="http://www.w3.org/2000/svg" viewBox="0 0 82.123 27.783">
  <defs>
    <style>
      .cls-1 {
        fill: #1b1b1c;
      }
    </style>
  </defs>
  <path id="Path_12" data-name="Path 12" class="cls-1" d="M16.279,0V9.967h-.137a6.555,6.555,0,0,0-.956-1.024,6.916,6.916,0,0,0-1.365-.956,11.513,11.513,0,0,0-1.843-.751,8.4,8.4,0,0,0-2.389-.341,8.937,8.937,0,0,0-3.823.819,9.731,9.731,0,0,0-3,2.184,11.353,11.353,0,0,0-1.98,3.277A11.1,11.1,0,0,0,.1,17.2a11.731,11.731,0,0,0,.683,4.1,9.69,9.69,0,0,0,1.843,3.277,8.924,8.924,0,0,0,3,2.253,9.433,9.433,0,0,0,4.028.819,8.554,8.554,0,0,0,3.891-.887,7.047,7.047,0,0,0,2.867-2.594h.068V27.1h4.71V0Zm-.2,19.524a6.115,6.115,0,0,1-1.161,2.048,4.814,4.814,0,0,1-1.843,1.434,5.355,5.355,0,0,1-2.389.546,5.969,5.969,0,0,1-2.526-.546A6.3,6.3,0,0,1,6.38,21.5a5.781,5.781,0,0,1-1.024-2.048,8.67,8.67,0,0,1-.341-2.321,8.583,8.583,0,0,1,.341-2.253A5.781,5.781,0,0,1,6.38,12.834,4.59,4.59,0,0,1,8.155,11.4a5.969,5.969,0,0,1,2.526-.546,5.355,5.355,0,0,1,2.389.546,7.736,7.736,0,0,1,1.843,1.5,7.569,7.569,0,0,1,1.161,2.048,6.647,6.647,0,0,1,.41,2.321A6.554,6.554,0,0,1,16.074,19.524Z" transform="translate(-0.1 0)"/>
  <path id="Path_13" data-name="Path 13" class="cls-1" d="M48.685,27.781h-.137a5.765,5.765,0,0,1-2.389,2.184,8.218,8.218,0,0,1-3.755.819,10.153,10.153,0,0,1-2.458-.341,8.157,8.157,0,0,1-2.389-1.024,5.325,5.325,0,0,1-1.775-1.911A5.251,5.251,0,0,1,35.1,24.64a4.989,4.989,0,0,1,1.229-3.55,7.321,7.321,0,0,1,3.208-1.98,19.649,19.649,0,0,1,4.369-.956q2.355-.2,4.71-.2v-.41a3.1,3.1,0,0,0-1.365-2.731,5.31,5.31,0,0,0-3.14-.887,6.663,6.663,0,0,0-3,.683,7.65,7.65,0,0,0-2.389,1.57l-2.526-3a10.206,10.206,0,0,1,3.891-2.321,12.381,12.381,0,0,1,4.437-.751,10.8,10.8,0,0,1,4.3.751,6.7,6.7,0,0,1,2.662,1.911,7.07,7.07,0,0,1,1.365,2.662,10.877,10.877,0,0,1,.41,2.935V30.306H48.685Zm-.137-6.417H47.456c-.819,0-1.638.068-2.526.068a8.238,8.238,0,0,0-2.389.478,4.717,4.717,0,0,0-1.843.956,2.263,2.263,0,0,0-.751,1.775A1.953,1.953,0,0,0,40.22,25.8a2.17,2.17,0,0,0,.819.751,3.016,3.016,0,0,0,1.092.41,7.523,7.523,0,0,0,1.229.137,5.012,5.012,0,0,0,3.823-1.365,4.965,4.965,0,0,0,1.3-3.686v-.683Z" transform="translate(-11.207 -3.205)"/>
  <path id="Path_14" data-name="Path 14" class="cls-1" d="M78.37,16A5.593,5.593,0,0,0,76.6,14.5a5.125,5.125,0,0,0-2.526-.614,4.663,4.663,0,0,0-2.184.478A1.656,1.656,0,0,0,70.929,16a1.676,1.676,0,0,0,1.092,1.638,18.8,18.8,0,0,0,3.208.956,14.158,14.158,0,0,1,2.253.683,7.377,7.377,0,0,1,2.048,1.092,6.014,6.014,0,0,1,1.5,1.707,4.676,4.676,0,0,1,.546,2.458A6.191,6.191,0,0,1,80.9,27.6a6.427,6.427,0,0,1-1.775,2.048,6.774,6.774,0,0,1-2.594,1.092,15.683,15.683,0,0,1-3.072.341,12.455,12.455,0,0,1-4.437-.819A9.584,9.584,0,0,1,65.4,27.876l3.208-3a6.821,6.821,0,0,0,2.116,1.775,5.881,5.881,0,0,0,4.028.546,3.218,3.218,0,0,0,1.024-.41,2.434,2.434,0,0,0,.751-.683,1.861,1.861,0,0,0,.273-1.092,1.794,1.794,0,0,0-1.092-1.775,25.541,25.541,0,0,0-3.413-1.092,13.082,13.082,0,0,1-2.184-.614A8.014,8.014,0,0,1,68.267,20.5a4.566,4.566,0,0,1-1.775-3.891,5.162,5.162,0,0,1,.683-2.8,6.183,6.183,0,0,1,1.775-1.98,7.664,7.664,0,0,1,2.526-1.092,10.3,10.3,0,0,1,2.867-.341,12.462,12.462,0,0,1,4.164.751A6.872,6.872,0,0,1,81.715,13.4Z" transform="translate(-20.823 -3.3)"/>
  <path id="Path_15" data-name="Path 15" class="cls-1" d="M110.252,9.352A6.355,6.355,0,0,0,108,7.577a7.03,7.03,0,0,0-3.277-.683,6.469,6.469,0,0,0-2.048.273,12.894,12.894,0,0,0-1.707.751,9.981,9.981,0,0,0-1.3,1.092,4.284,4.284,0,0,0-.819,1.229h-.137V0H93.8V27.1h4.915V16.384a5.889,5.889,0,0,1,.273-1.911,5.824,5.824,0,0,1,.887-1.707,6.209,6.209,0,0,1,1.434-1.229,4.533,4.533,0,0,1,2.048-.478,3.177,3.177,0,0,1,1.911.478,3.741,3.741,0,0,1,1.092,1.229,6.259,6.259,0,0,1,.546,1.707,16.808,16.808,0,0,1,.137,1.775V27.033h4.915V14.745a10.514,10.514,0,0,0-.41-2.935A7.7,7.7,0,0,0,110.252,9.352Z" transform="translate(-29.836 0)"/>
</svg>
